HIERARCHY
ROOT Hips
{
	OFFSET 0.000000 0.000000 0.000000
	CHANNELS 6 Xposition Yposition Zposition Zrotation Yrotation Xrotation 
	JOINT LHipJoint
	{
		OFFSET 0.000000 0.000000 0.000000
		CHANNELS 3 Zrotation Yrotation Xrotation
		JOINT LeftUpLeg
		{
			OFFSET 1.363060 -1.794630 0.839290
			CHANNELS 3 Zrotation Yrotation Xrotation
			JOINT LeftLeg
			{
				OFFSET 2.448110 -6.726130 0.000000
				CHANNELS 3 Zrotation Yrotation Xrotation
				JOINT LeftFoot
				{
					OFFSET 2.562200 -7.039590 0.000000
					CHANNELS 3 Zrotation Yrotation Xrotation
					JOINT LeftToeBase
					{
						OFFSET 0.157640 -0.433110 2.322550
						CHANNELS 3 Zrotation Yrotation Xrotation
						End Site
						{
							OFFSET 0.000000 0.000000 0.000000
						}
					}
				}
			}
		}
	}
	JOINT RHipJoint
	{
		OFFSET 0.000000 0.000000 0.000000
		CHANNELS 3 Zrotation Yrotation Xrotation
		JOINT RightUpLeg
		{
			OFFSET -1.305520 -1.794630 0.839290
			CHANNELS 3 Zrotation Yrotation Xrotation
			JOINT RightLeg
			{
				OFFSET -2.542530 -6.985550 0.000000
				CHANNELS 3 Zrotation Yrotation Xrotation
				JOINT RightFoot
				{
					OFFSET -2.568260 -7.056230 0.000000
					CHANNELS 3 Zrotation Yrotation Xrotation
					JOINT RightToeBase
					{
						OFFSET -0.164730 -0.452590 2.363150
						CHANNELS 3 Zrotation Yrotation Xrotation
						End Site
						{
							OFFSET 0.000000 0.000000 0.000000
						}
					}
				}
			}
		}
	}
	JOINT LowerBack
	{
		OFFSET 0.000000 0.000000 0.000000
		CHANNELS 3 Zrotation Yrotation Xrotation
		JOINT Spine
		{
			OFFSET 0.028270 2.035590 -0.193380
			CHANNELS 3 Zrotation Yrotation Xrotation
			JOINT Spine1
			{
				OFFSET 0.056720 2.048850 -0.042750
				CHANNELS 3 Zrotation Yrotation Xrotation
				JOINT Neck
				{
					OFFSET 0.000000 0.000000 0.000000
					CHANNELS 3 Zrotation Yrotation Xrotation
					JOINT Neck1
					{
						OFFSET -0.054170 1.746240 0.172020
						CHANNELS 3 Zrotation Yrotation Xrotation
						JOINT Head
						{
							OFFSET 0.104070 1.761360 -0.123970
							CHANNELS 3 Zrotation Yrotation Xrotation
							End Site
							{
								OFFSET 0.000000 0.000000 0.000000
							}
						}
					}
				}
				JOINT LeftShoulder
				{
					OFFSET 0.000000 0.000000 0.000000
					CHANNELS 3 Zrotation Yrotation Xrotation
					JOINT LeftArm
					{
						OFFSET 3.362410 1.200890 -0.311210
						CHANNELS 3 Zrotation Yrotation Xrotation
						JOINT LeftForeArm
						{
							OFFSET 4.983000 -0.000000 -0.000000
							CHANNELS 3 Zrotation Yrotation Xrotation
							JOINT LeftHand
							{
								OFFSET 3.483560 -0.000000 -0.000000
								CHANNELS 3 Zrotation Yrotation Xrotation
								JOINT LeftFingerBase
								{
									OFFSET 0.000000 0.000000 0.000000
									CHANNELS 3 Zrotation Yrotation Xrotation
									JOINT LeftHandIndex1
									{
										OFFSET 0.715260 -0.000000 -0.000000
										CHANNELS 3 Zrotation Yrotation Xrotation
										End Site
										{
											OFFSET 0.000000 0.000000 0.000000
										}
									}
								}
								JOINT LThumb
								{
									OFFSET 0.000000 0.000000 0.000000
									CHANNELS 3 Zrotation Yrotation Xrotation
									End Site
									{
										OFFSET 0.000000 0.000000 0.000000
									}
								}
							}
						}
					}
				}
				JOINT RightShoulder
				{
					OFFSET 0.000000 0.000000 0.000000
					CHANNELS 3 Zrotation Yrotation Xrotation
					JOINT RightArm
					{
						OFFSET -3.136600 1.374050 -0.404650
						CHANNELS 3 Zrotation Yrotation Xrotation
						JOINT RightForeArm
						{
							OFFSET -5.241900 -0.000000 -0.000000
							CHANNELS 3 Zrotation Yrotation Xrotation
							JOINT RightHand
							{
								OFFSET -3.444170 -0.000000 -0.000000
								CHANNELS 3 Zrotation Yrotation Xrotation
								JOINT RightFingerBase
								{
									OFFSET 0.000000 0.000000 0.000000
									CHANNELS 3 Zrotation Yrotation Xrotation
									JOINT RightHandIndex1
									{
										OFFSET -0.622530 -0.000000 -0.000000
										CHANNELS 3 Zrotation Yrotation Xrotation
										End Site
										{
											OFFSET 0.000000 0.000000 0.000000
										}
									}
								}
								JOINT RThumb
								{
									OFFSET 0.000000 0.000000 0.000000
									CHANNELS 3 Zrotation Yrotation Xrotation
									End Site
									{
										OFFSET 0.000000 0.000000 0.000000
									}
								}
							}
						}
					}
				}
			}
		}
	}
}
MOTION
Frames: 4
Frame Time: 0.008333
-0.014893 17.945380 0.402407 -0.667885 -2.024979 -1.129001 -2.023473 -0.005716 1.255750 -14.998128 1.854197 3.068630 -0.362241 3.511534 10.074873 0.226642 -0.064801 -4.942092 1.796400 -8.428500 -24.023200 1.173935 1.815085 -1.270176 19.315924 -2.651309 1.461542 -1.116788 -6.459980 15.474289 0.293448 -5.563758 -9.669839 -0.556900 -4.780400 13.283200 -3.521767 -2.654712 10.033217 1.184277 -3.558584 -3.021494 5.084803 -1.980209 -7.101255 -12.655528 -11.348676 -5.000295 12.441766 -14.951555 8.785488 2.993100 -7.142600 5.716000 2.570509 5.462187 -0.550842 -92.247711 13.566774 8.917693 19.458252 -37.466616 -6.472259 -0.429997 0.804741 -0.079973 5.826891 -8.128597 -0.975100 -7.125000 0.000000 0.000000 -14.772800 21.107200 8.751800 -1.552371 -5.681462 -0.717969 86.240006 -3.056485 12.168527 -7.972294 24.329865 -1.393345 -1.115071 -2.352482 6.224658 -6.696013 -40.957761 3.637100 7.125000 0.000000 0.000000 37.199800 -64.947700 -19.156100 
-0.017673 17.943394 0.404095 -0.968350 -2.028844 -1.145016 -2.014138 0.004366 1.261112 -14.593538 1.932533 3.029507 -0.353298 3.534201 10.140442 0.228245 -0.092879 -4.846222 1.740300 -8.302800 -23.637600 1.171179 1.798788 -1.263532 19.719545 -2.583188 1.469096 -1.121024 -6.477170 15.530455 0.309840 -5.689915 -9.759471 -0.529100 -4.661400 12.945200 -3.223910 -2.636875 9.962398 1.224309 -3.494725 -2.877661 4.921720 -1.970714 -6.935679 -12.740928 -11.286255 -4.582196 12.796647 -14.910450 8.285048 3.125100 -7.141100 5.540800 2.572200 5.451897 -0.562169 -92.344522 13.605523 9.257636 19.664988 -37.681925 -6.557230 -0.428292 0.808082 -0.094035 5.827287 -8.424137 -1.007200 -7.125000 0.000000 0.000000 -14.748200 20.816700 8.836800 -1.550326 -5.691974 -0.720324 86.374769 -2.974624 12.431097 -7.942270 24.318519 -1.403300 -1.114581 -2.327409 6.633127 -6.521586 -40.410561 3.496600 7.125000 0.000000 0.000000 36.635900 -64.487400 -18.443200 
-0.019857 17.941309 0.406478 -1.221372 -2.058876 -1.134384 -2.006838 0.012963 1.265632 -14.260142 1.944888 2.988570 -0.347018 3.557263 10.204812 0.227803 -0.091998 -4.815113 1.700700 -8.212700 -23.362100 1.169352 1.783760 -1.256781 20.062567 -2.479532 1.449986 -1.127947 -6.494462 15.589905 0.317475 -5.746647 -9.809922 -0.529200 -4.661700 12.946300 -3.030807 -2.648291 9.836995 1.298730 -3.479671 -2.729915 4.857600 -1.981147 -6.727386 -12.904023 -11.204875 -4.219413 13.138065 -14.830653 7.864845 3.266000 -7.120200 5.397700 2.573699 5.441129 -0.570975 -92.540070 13.655423 9.490713 19.950489 -37.971245 -6.682872 -0.430702 0.820212 -0.153024 5.742336 -8.307051 -0.982500 -7.125000 0.000000 0.000000 -14.815700 20.920300 8.844000 -1.545117 -5.695616 -0.722431 86.448431 -2.938688 12.940173 -7.980554 24.409716 -1.433478 -1.122778 -2.290442 7.238583 -6.514771 -39.887712 3.462300 7.125000 0.000000 0.000000 35.973300 -64.096200 -17.743700 
-0.022042 17.939423 0.407073 -1.506546 -2.086407 -1.091728 -1.999635 0.022375 1.270615 -13.886107 1.937642 2.904033 -0.340333 3.586212 10.284411 0.230555 -0.099153 -4.834715 1.690100 -8.188300 -23.287500 1.166544 1.766402 -1.250013 20.462830 -2.311060 1.426106 -1.132161 -6.497415 15.611226 0.335938 -5.873593 -9.827713 -0.554300 -4.769100 13.251300 -2.819175 -2.674509 9.692066 1.398528 -3.481038 -2.602054 4.800534 -2.000040 -6.513456 -13.309386 -11.054011 -3.552160 13.810769 -14.681437 7.212383 3.550700 -7.078600 5.174400 2.578368 5.426404 -0.581518 -92.747672 13.761740 9.731538 20.272496 -38.292803 -6.825152 -0.434205 0.833448 -0.175061 5.606394 -8.141324 -0.945300 -7.125000 0.000000 0.000000 -14.922200 21.071400 8.859100 -1.530346 -5.694885 -0.729941 86.504922 -2.900693 13.274231 -8.066139 24.553001 -1.462179 -1.116286 -2.291489 6.986990 -6.710602 -39.800656 3.573300 7.125000 0.000000 0.000000 35.673400 -64.083300 -17.566400 
